<svg xmlns="http://www.w3.org/2000/svg" viewBox="0 0 1921 1094"><defs><style>.cls-1{fill:blue;stroke:#000;stroke-miterlimit:10;}.cls-2,.cls-3{fill:#fff;}.cls-2{opacity:0.6;}</style></defs><title>1</title><g id="Layer_3" data-name="Layer 3"><rect class="cls-1" x="0.5" y="0.5" width="1920" height="1093"/></g><g id="Layer_2" data-name="Layer 2"><path class="cls-2" d="M7333.27,7158.63a75.06,75.06,0,1,0-43.3-69.12A93,93,0,0,1,7333.27,7158.63Z" transform="translate(-6239 -6659)"/><path class="cls-3" d="M7240.78,7243.26a75.09,75.09,0,1,0-75.1-75.08A75.09,75.09,0,0,0,7240.78,7243.26Z" transform="translate(-6239 -6659)"/><path class="cls-2" d="M7109,7165.75a74.59,74.59,0,0,0,39.94-11.59,92.93,92.93,0,0,1,34.93-59.27c.08-1.41.21-2.8.21-4.22a75.08,75.08,0,1,0-75.08,75.08Z" transform="translate(-6239 -6659)"/><path class="cls-2" d="M7176.45,7235.32a92.6,92.6,0,0,1-28.54-64.1c-2.35-.17-4.66-.36-7.05-.36h-63.71A96.25,96.25,0,0,0,6981,7267v77.93l.2,1.2,5.37,1.69c40.59,12.67,76.81,18.51,108.27,20.35v-23.53A114.27,114.27,0,0,1,7176.45,7235.32Z" transform="translate(-6239 -6659)"/><path class="cls-2" d="M7396.86,7170.86h-63.23a92.54,92.54,0,0,1-28.56,64.46,114.24,114.24,0,0,1,81.6,109.33v24c62.43-2.29,98.4-20,100.77-21.17l5-2.54h.54V7267A96.25,96.25,0,0,0,7396.86,7170.86Z" transform="translate(-6239 -6659)"/><path class="cls-3" d="M7272.63,7248.38h-63.72a96.26,96.26,0,0,0-96.14,96.15v77.92l.2,1.22,5.37,1.68c50.59,15.81,94.55,21.08,130.73,21.08,70.66,0,111.62-20.15,114.14-21.43l5-2.54h.54v-77.93A96.23,96.23,0,0,0,7272.63,7248.38Z" transform="translate(-6239 -6659)"/></g></svg>